<svg width="93" height="19" viewBox="0 0 93 19" fill="none" xmlns="http://www.w3.org/2000/svg">
<g id="_105553154231680">
<path id="Vector" d="M71.9834 0.955153V14.8072C71.9834 15.3345 71.5672 15.7623 71.0544 15.7623H69.9026C69.4418 15.7623 69.063 15.4184 68.9886 14.9677C68.8362 15.0097 68.6802 15.0288 68.5167 15.0288H64.3628C63.2777 15.0288 62.4007 14.1272 62.4007 13.0119V11.686C62.4007 10.964 61.1376 10.4978 61.1376 10.4978H60.0488C59.1348 10.4978 58.3916 9.7339 58.3916 8.7943V6.66618C58.3916 5.72657 59.1348 4.96267 60.0488 4.96267H61.1376C61.1376 4.96267 61.981 4.85168 62.4007 4.09898V2.59015C62.4007 1.47846 63.2777 0.573201 64.3628 0.573201H68.5167C68.6913 0.573201 68.8623 0.596158 69.0257 0.645687C69.1482 0.271327 69.4939 0 69.9026 0H71.0544C71.5672 0 71.9834 0.427867 71.9834 0.955153Z" fill="white"/>
<path id="Vector_2" d="M12.1911 12.8119H14.2696V18.2368H11.8711V15.0721H0V0.688477H2.55792V12.8119H9.61278V0.688477H12.1911V12.8119Z" fill="white"/>
<path id="Vector_3" d="M21.2446 2.35417C20.6979 2.35417 20.2652 2.4948 19.9456 2.77535C19.6257 3.05625 19.4658 3.42266 19.4658 3.87475C19.4658 4.20356 19.5522 4.51537 19.7256 4.80947C19.8984 5.10448 20.2318 5.50505 20.7249 6.01191C21.5244 5.55982 22.0803 5.16612 22.3936 4.83008C22.7067 4.49476 22.863 4.12836 22.863 3.73104C22.863 3.30625 22.7197 2.97057 22.4335 2.72419C22.1471 2.47745 21.7506 2.35417 21.2446 2.35417ZM20.7849 13.183C21.9438 13.183 22.9564 12.8205 23.8224 12.0939L20.1254 8.45691C19.3258 8.90881 18.763 9.34427 18.4362 9.76165C18.1097 10.1798 17.9469 10.649 17.9469 11.1693C17.9469 11.7725 18.2066 12.2584 18.7263 12.6282C19.2458 12.998 19.9318 13.183 20.7849 13.183ZM28.4393 13.635L27.06 15.2995L25.3014 13.5528C23.9956 14.7035 22.4301 15.2789 20.605 15.2789C19.1261 15.2789 17.907 14.9195 16.9476 14.2003C15.9882 13.481 15.5085 12.5599 15.5085 11.4364C15.5085 10.546 15.7615 9.76165 16.2681 9.08379C16.7742 8.40557 17.6 7.73801 18.7461 7.0804C17.7069 6.01191 17.1874 4.95679 17.1874 3.91578C17.1874 2.90224 17.5569 2.08375 18.2964 1.46011C19.0361 0.837025 20.0183 0.525391 21.2446 0.525391C22.3767 0.525391 23.2828 0.809912 23.9624 1.37805C24.6419 1.94673 24.9815 2.7175 24.9815 3.68983C24.9815 4.42969 24.7583 5.08712 24.3122 5.66249C23.8657 6.23786 23.136 6.82028 22.1235 7.40902L25.1415 10.3678C25.4745 9.69694 25.7342 8.88821 25.9209 7.94318L27.9396 8.62122C27.6729 9.89524 27.2532 10.9916 26.6804 11.9089L28.4393 13.635Z" fill="white"/>
<path id="Vector_4" d="M37.1528 15.2784C35.0073 15.2784 33.2256 14.58 31.8066 13.1825C30.3876 11.7854 29.6782 10.018 29.6782 7.88089C29.6782 5.74427 30.3876 3.97713 31.8066 2.57965C33.2256 1.18254 35.0145 0.483887 37.1726 0.483887C39.531 0.483887 41.3762 1.28521 42.7087 2.88803L41.03 4.51129C40.0175 3.38802 38.7715 2.8264 37.2925 2.8264C35.8403 2.8264 34.6446 3.29909 33.7052 4.24412C32.7659 5.18933 32.2963 6.40171 32.2963 7.88089C32.2963 9.36043 32.7659 10.5728 33.7052 11.518C34.6446 12.4634 35.8403 12.9359 37.2925 12.9359C38.7715 12.9359 40.0175 12.368 41.03 11.2304L42.7087 12.8743C41.3762 14.4769 39.5243 15.2784 37.1528 15.2784Z" fill="white"/>
<path id="Vector_5" d="M51.8622 13.0174C53.7008 13.0174 54.6201 12.3054 54.6201 10.8803C54.6201 9.48314 53.7008 8.7843 51.8622 8.7843H47.8652V13.0174H51.8622ZM47.8652 2.74339V6.83243H51.3426C53.0614 6.83243 53.9208 6.15439 53.9208 4.7983C53.9208 3.42848 53.0614 2.74339 51.3426 2.74339H47.8652ZM54.5004 7.5929C56.3255 8.09958 57.2384 9.26423 57.2384 11.0858C57.2384 12.3466 56.7853 13.3256 55.8795 14.0243C54.9732 14.7229 53.6609 15.0723 51.9421 15.0723H45.3071V0.688477H51.5624C53.1345 0.688477 54.3605 1.0106 55.2397 1.65429C56.1193 2.29835 56.559 3.2094 56.559 4.38725C56.559 5.92138 55.8726 6.99005 54.5004 7.5929Z" fill="white"/>
<path id="Vector_6" d="M70.9598 12.442H77.8149C78.3886 12.442 78.854 12.9203 78.854 13.5105C78.854 14.1005 78.3886 14.5788 77.8149 14.5788H68.3616V0.855469H77.535C78.1091 0.855469 78.5742 1.33395 78.5742 1.92414C78.5742 2.51415 78.1091 2.99263 77.535 2.99263H70.9598V6.56071H76.6948C77.2581 6.56071 77.7147 7.03015 77.7147 7.60949C77.7147 8.18848 77.2581 8.65828 76.6948 8.65828H70.9598V12.442Z" fill="white"/>
<path id="Vector_7" d="M92.4017 0.688477V2.94892H87.7649V15.0723H85.1872V2.94892H80.5703V0.688477H92.4017Z" fill="white"/>
</g>
</svg>
