<svg width="87" height="17" viewBox="0 0 87 17" fill="none" xmlns="http://www.w3.org/2000/svg">
<g opacity="0.5">
<path d="M13.733 2.19287H12.1541C11.6824 2.19287 11.2988 2.57487 11.2988 3.04466V4.61719C11.2988 5.08698 11.6824 5.46898 12.1541 5.46898H13.733C14.2048 5.46898 14.5883 5.08698 14.5883 4.61719V3.04466C14.5883 2.57487 14.2048 2.19287 13.733 2.19287ZM13.9304 4.61719C13.9304 4.72563 13.8419 4.81376 13.733 4.81376H12.1541C12.0452 4.81376 11.9567 4.72563 11.9567 4.61719V3.04466C11.9567 2.93622 12.0452 2.84809 12.1541 2.84809H13.733C13.8419 2.84809 13.9304 2.93622 13.9304 3.04466V4.61719Z" fill="#EAEAEA"/>
<path d="M12.8776 0.55481H3.79863C1.94863 0.55481 0.443359 2.05822 0.443359 3.90659V6.12419V6.77941V12.6011C0.443359 14.4491 1.94863 15.9525 3.79863 15.9525H12.8776C14.7276 15.9525 16.2329 14.4491 16.2329 12.6011V6.77941V6.12419V3.90659C16.2329 2.05822 14.7276 0.55481 12.8776 0.55481ZM15.575 12.6011C15.575 14.0878 14.3648 15.2973 12.8776 15.2973H3.79863C2.31113 15.2973 1.10126 14.0878 1.10126 12.6011V6.77941H5.12133C4.26574 7.61253 3.73284 8.7726 3.73284 10.0555C3.73284 12.5847 5.79863 14.6421 8.33811 14.6421C10.8776 14.6421 12.9434 12.5847 12.9434 10.0555C12.9434 8.7726 12.4105 7.61253 11.5549 6.77941H15.575V12.6011ZM12.2855 10.0555C12.2855 12.2233 10.5148 13.9868 8.33811 13.9868C6.16146 13.9868 4.39074 12.2233 4.39074 10.0555C4.39074 7.88772 6.16146 6.12419 8.33811 6.12419C10.5148 6.12419 12.2855 7.88772 12.2855 10.0555ZM10.698 6.12419C10.0069 5.71107 9.20127 5.46897 8.33811 5.46897C7.47495 5.46897 6.66936 5.71107 5.97824 6.12419H1.10126V3.90659C1.10126 2.41957 2.31146 1.21003 3.79863 1.21003H12.8776C14.3648 1.21003 15.575 2.41957 15.575 3.90659V6.12419H10.698Z" fill="#EAEAEA"/>
<path d="M5.37744 10.0553C5.37744 11.6809 6.7054 13.0038 8.33797 13.0038C9.97054 13.0038 11.2985 11.6809 11.2985 10.0553C11.2985 8.4297 9.97054 7.10681 8.33797 7.10681C6.7054 7.10681 5.37744 8.4297 5.37744 10.0553ZM10.6406 10.0553C10.6406 11.3199 9.60738 12.3486 8.33797 12.3486C7.06856 12.3486 6.03534 11.3199 6.03534 10.0553C6.03534 8.79073 7.06856 7.76203 8.33797 7.76203C9.60738 7.76203 10.6406 8.79073 10.6406 10.0553Z" fill="#EAEAEA"/>
</g>
<path opacity="0.5" d="M48.384 1.36065L48.4037 1.35311L48.423 1.34446C48.5124 1.30444 48.5714 1.30291 48.5968 1.30573C48.6094 1.30714 48.6153 1.30965 48.6166 1.31025C48.6177 1.31074 48.6179 1.31089 48.6186 1.31157C48.6193 1.31228 48.6244 1.31718 48.6313 1.33042C48.6384 1.34394 48.6486 1.36864 48.6564 1.40847C48.6721 1.4894 48.6765 1.63065 48.6232 1.84246L48.6199 1.85542L48.6171 1.8685L45.7115 15.4198L45.7109 15.4224C45.6569 15.6787 45.5893 15.7676 45.5652 15.792C45.5352 15.794 45.4371 15.7897 45.2387 15.6876L40.8557 12.4838L40.3471 12.112L39.8931 12.5489L38.2481 14.1319L38.4287 11.461L46.4085 4.33407C46.4094 4.33329 46.4103 4.3325 46.4112 4.33171C46.5433 4.21512 46.7811 3.96735 46.7952 3.59658C46.8033 3.38253 46.7319 3.1755 46.5937 3.01257C46.4659 2.86188 46.3112 2.78312 46.1909 2.74224C45.9585 2.66328 45.7241 2.67876 45.5455 2.71539C45.3526 2.75495 45.1561 2.83283 44.9694 2.94522L44.9693 2.94513L44.9591 2.95156L35.1134 9.09895L31.2437 7.90434C31.2692 7.89322 31.2963 7.88195 31.3248 7.87056L48.384 1.36065ZM45.5561 15.7999C45.5561 15.7999 45.5567 15.7994 45.558 15.7986C45.5568 15.7995 45.5561 15.7999 45.5561 15.7999ZM45.8535 4.18378C45.8534 4.18389 45.8514 4.18429 45.8476 4.18466C45.8516 4.18386 45.8535 4.18367 45.8535 4.18378ZM30.8585 8.1389C30.8584 8.13889 30.8592 8.1378 30.8611 8.13564C30.8595 8.13783 30.8586 8.1389 30.8585 8.1389Z" stroke="#EAEAEA" stroke-width="1.5"/>
<g opacity="0.5">
<path d="M72.8385 12.4943L72.8386 12.4943L79.042 9.54762C79.042 9.54761 79.042 9.54759 79.0421 9.54758C79.7919 9.19143 79.805 8.12959 79.0635 7.75543L72.8601 4.62461C72.8601 4.62461 72.8601 4.6246 72.86 4.62459C72.2 4.29148 71.4105 4.76666 71.4105 5.51539V11.5929C71.4105 12.331 72.1799 12.8071 72.8385 12.4943ZM78.3878 9.09459C78.3876 9.09451 78.3874 9.09442 78.3873 9.09434L78.3877 9.09457L78.3878 9.09459ZM68.6438 1.30481H81.9067C84.0976 1.30481 85.8684 3.0728 85.8684 5.2473V11.8504C85.8684 14.0249 84.0976 15.7929 81.9067 15.7929H68.6438C66.4529 15.7929 64.6821 14.0249 64.6821 11.8504V5.2473C64.6821 3.0728 66.4529 1.30481 68.6438 1.30481Z" stroke="#EAEAEA" stroke-width="1.5"/>
</g>
</svg>
