<svg width="103" height="30" viewBox="0 0 103 30" fill="none" xmlns="http://www.w3.org/2000/svg">
<path d="M102.539 29.6411H100.568V19.4146L91.7006 29.6411H90.7046V14.4106H93.0756V24.7939L102.003 14.4106H103V29.6411H102.539Z" fill="white"/>
<path d="M78.1144 14.4106H80.0245V20.4128H86.4701V14.4106H88.8413V29.6411H86.4701V22.7217H80.0245V29.6411H77.6533V14.4106H78.1144Z" fill="white"/>
<path d="M65.6458 14.4106H67.5941L70.7941 19.5593L74.0064 14.4106H76.7774L72.1753 21.7824L77.059 29.6411H74.2861L70.7871 24.0101L67.2695 29.6411H64.499L69.4032 21.7842L64.8208 14.4106H65.6458Z" fill="white"/>
<path d="M40.9781 14.4105H42.9087V19.1885L48.0631 14.4105H51.3576L53.7594 14.4087L57.8471 23.4699L61.5607 14.4105H64.1472L58.3862 27.9064C58.0967 28.5938 57.6859 29.1149 57.1554 29.4684C56.6235 29.8224 55.9854 29.9998 55.241 29.9998C54.9481 29.9998 54.6611 29.9695 54.381 29.9098C54.1011 29.8495 53.8305 29.7603 53.5692 29.6431L53.5674 29.6413C53.2939 29.5169 52.9942 29.316 52.6686 29.0403C52.3579 28.7771 52.0176 28.4423 51.648 28.0369L51.3261 27.6834L53.0718 26.2628L53.3658 26.5501C53.7234 26.8993 54.0164 27.1692 54.2437 27.3587C54.4496 27.528 54.5898 27.6288 54.6639 27.6581C54.7608 27.6968 54.8568 27.7257 54.9507 27.7443C55.0379 27.7617 55.1315 27.7706 55.2308 27.7706C55.3772 27.7706 55.5094 27.7526 55.6269 27.7172C55.7415 27.6824 55.8485 27.6294 55.9474 27.5588C56.0362 27.4939 56.1416 27.3618 56.2619 27.1643C56.3806 26.9697 56.504 26.7259 56.6315 26.4336L51.1952 14.5602L43.8743 21.3093L51.7966 29.6409H48.6044L42.9087 23.6471V29.6409H40.5171V14.4105H40.9781Z" fill="white"/>
<path d="M39.5872 17.8715L38.0823 19.0157L37.8018 18.6529C37.5087 18.2744 37.1878 17.9429 36.8389 17.6588C36.4898 17.3746 36.1113 17.1357 35.7046 16.9425C35.3007 16.7501 34.8724 16.6044 34.4211 16.5069C33.9709 16.4096 33.497 16.3607 33.0006 16.3607C32.4614 16.3607 31.9458 16.4242 31.4545 16.5506C30.9616 16.6774 30.4848 16.8696 30.025 17.1259C29.5677 17.3812 29.1642 17.6786 28.8155 18.0171C28.4658 18.3562 28.1664 18.7397 27.9165 19.1666C27.6665 19.5943 27.4786 20.0484 27.3546 20.5255C27.2302 21.0041 27.1675 21.516 27.1675 22.0591C27.1675 22.8756 27.3066 23.6203 27.5846 24.2912C27.8626 24.962 28.2807 25.5675 28.8386 26.1064C29.3981 26.6482 30.0297 27.0546 30.7326 27.3243C31.439 27.5954 32.2254 27.7309 33.0912 27.7309C34.9739 27.7309 36.5488 26.9998 37.818 25.5386L38.1003 25.2135L39.9588 26.6103L39.6701 26.9735C39.2887 27.4534 38.8565 27.8822 38.3748 28.2585C37.8989 28.632 37.3747 28.95 36.8032 29.2128C36.2339 29.4744 35.6294 29.6718 34.9917 29.8031C34.3562 29.934 33.6921 29.9999 33.0006 29.9999C30.3316 29.9999 28.2193 29.1126 26.6676 27.3386C26.0166 26.5911 25.5278 25.7657 25.2026 24.8645C24.8784 23.965 24.7158 22.9906 24.7158 21.9426C24.7158 20.8362 24.9135 19.8126 25.308 18.8743C25.7026 17.9364 26.2936 17.0873 27.0807 16.3291C27.8683 15.5701 28.7563 15.0004 29.7446 14.6202C30.7298 14.2413 31.8087 14.0518 32.9806 14.0518C34.3995 14.0518 35.685 14.3299 36.8358 14.8857C37.4162 15.1695 37.9428 15.5063 38.4143 15.8967C38.889 16.2894 39.3116 16.7383 39.6809 17.2419L39.9438 17.6002L39.5872 17.8715Z" fill="white"/>
<path d="M14.984 14.4106H23.718V16.7195H16.8941V20.2932H23.6578V22.6021H16.8941V27.3321H23.6578V29.6411H14.5229V14.4106H14.984Z" fill="white"/>
<path d="M14.28 13.473L10.4916 5.18403L5.6906 16.1642L8.10018 16.1353L2.84059 29.5423H0L4.63062 18.3531L2.02452 18.3653L10.5051 0L16.8181 13.473H14.28Z" fill="white"/>
</svg>
