<svg width="275" height="274" viewBox="0 0 275 274" fill="none" xmlns="http://www.w3.org/2000/svg">
<path opacity="0.03" d="M0 64.6944C0 52.0093 2.7893 40.8463 8.36791 31.2056C14.2001 21.3111 22.0609 13.7 31.9502 8.37223C42.0931 2.79074 53.5039 0 66.1826 0C78.6077 0 89.7649 2.79074 99.6542 8.37223C109.797 13.7 117.785 21.3111 123.617 31.2056C129.449 41.1 132.365 52.263 132.365 64.6944C132.365 77.1259 129.449 88.2889 123.617 98.1833C118.038 108.078 110.177 115.816 100.035 121.397C89.8917 126.725 78.6077 129.389 66.1826 129.389C53.7575 129.389 42.4735 126.725 32.3306 121.397C22.4412 115.816 14.5805 108.078 8.74827 98.1833C2.91609 88.2889 0 77.1259 0 64.6944ZM213.001 4.1861H254.841L63.1397 270.575H20.1591L213.001 4.1861ZM94.3292 64.6944C94.3292 56.0685 91.7934 49.2185 86.722 44.1444C81.6505 39.0704 74.8041 36.5333 66.1826 36.5333C57.8147 36.5333 50.9682 39.1972 45.6432 44.525C40.5717 49.5991 38.036 56.3222 38.036 64.6944C38.036 73.0667 40.5717 79.9167 45.6432 85.2444C50.9682 90.3185 57.8147 92.8555 66.1826 92.8555C74.8041 92.8555 81.6505 90.3185 86.722 85.2444C91.7934 79.9167 94.3292 73.0667 94.3292 64.6944ZM142.635 209.306C142.635 196.874 145.424 185.711 151.003 175.817C156.835 165.922 164.696 158.311 174.585 152.983C184.728 147.402 196.139 144.611 208.817 144.611C220.989 144.611 232.146 147.402 242.289 152.983C252.432 158.311 260.42 165.922 266.252 175.817C272.084 185.711 275 196.874 275 209.306C275 221.737 272.084 232.9 266.252 242.794C260.42 252.689 252.432 260.427 242.289 266.008C232.4 271.336 221.243 274 208.817 274C196.392 274 185.108 271.336 174.965 266.008C164.823 260.427 156.835 252.816 151.003 243.175C145.424 233.281 142.635 221.991 142.635 209.306ZM236.964 209.306C236.964 200.68 234.428 193.83 229.357 188.756C224.285 183.681 217.439 181.144 208.817 181.144C200.196 181.144 193.349 183.808 188.278 189.136C183.207 194.21 180.671 200.933 180.671 209.306C180.671 217.678 183.207 224.528 188.278 229.856C193.349 234.93 200.196 237.467 208.817 237.467C217.185 237.467 223.905 234.93 228.977 229.856C234.302 224.528 236.964 217.678 236.964 209.306Z" fill="#EAEAEA"/>
</svg>
